<svg xmlns="http://www.w3.org/2000/svg" viewBox="4982.851 1033 30 30"><defs><style>.a{fill:#fff;}</style></defs><path class="a" d="M30,5.8a10.554,10.554,0,0,1-3.535,1.192A7.515,7.515,0,0,0,29.171,2.8,11.048,11.048,0,0,1,25.262,4.64,5.682,5.682,0,0,0,20.77,2.248c-3.974,0-6.894,4.562-6,9.3C9.66,11.231,5.125,8.216,2.089,3.634c-1.612,3.4-.836,7.857,1.9,10.112A5.287,5.287,0,0,1,1.206,12.8c-.067,3.509,1.976,6.791,4.936,7.522a5.052,5.052,0,0,1-2.78.129c.783,3.009,3.055,5.2,5.75,5.259A10.784,10.784,0,0,1,0,28.846a15.158,15.158,0,0,0,9.435,3.4c11.427,0,17.884-11.876,17.494-22.528A14.5,14.5,0,0,0,30,5.8Z" transform="translate(4982.851 1030.752)"/></svg>