<svg xmlns="http://www.w3.org/2000/svg" viewBox="3743 1182 100 100"><defs><style>.a{fill:#053b0a;stroke:#f9fdff;stroke-width:2px;}.b{fill:#fff;}.c{stroke:none;}.d{fill:none;}</style></defs><g transform="translate(3159 1001)"><g class="a" transform="translate(584 181)"><circle class="c" cx="50" cy="50" r="50"/><circle class="d" cx="50" cy="50" r="49"/></g><path class="b" d="M16.425,33.525a7.922,7.922,0,0,1-2.733-.487l1.017-2.763a4.981,4.981,0,0,0,3.6-.065l1.118,2.725a7.858,7.858,0,0,1-3,.59ZM38.1,31.568l-4.148-2.362,1.458-2.56,4.15,2.362Zm-16.138-.05L20.45,28.99l4.1-2.452,1.513,2.527Zm9.8-3.52a4.942,4.942,0,0,0-3.6-.085l-1-2.77a7.953,7.953,0,0,1,2.687-.472,7.843,7.843,0,0,1,3.042.61L31.758,28ZM9.923,27.59a2.42,2.42,0,1,0,2.422,2.42A2.421,2.421,0,0,0,9.923,27.59ZM43.862,10,30,0,16.138,10,0,0V50L16.138,60,30,50,43.862,60,60,50V0L43.862,10ZM55,47.217l-10,6.2V42.5H42.5V52.852l-10-7.213V35h-5V45.637l-10,7.212V40H15V53.412l-10-6.2V8.98l10,6.2V22.5h2.5V15.182l10-7.215V17.5h5V7.967l10,7.215V20H45V15.177l10-6.2V47.217ZM51.68,35.04l-3.24-3.185,3.183-3.232-1.77-1.755L46.673,30.1l-3.235-3.18L41.68,28.68l3.24,3.19-3.183,3.24L43.5,36.867l3.193-3.245,3.237,3.187,1.755-1.77Z" transform="translate(604 201)"/></g></svg>