<svg xmlns="http://www.w3.org/2000/svg" viewBox="4928.062 1033 30 30"><defs><style>.a{fill:#fff;fill-rule:evenodd;}</style></defs><path class="a" d="M26.539,0H3.461A3.462,3.462,0,0,0,0,3.461V26.536A3.462,3.462,0,0,0,3.461,30H26.54A3.461,3.461,0,0,0,30,26.536V3.461A3.461,3.461,0,0,0,26.539,0ZM15,9.231A5.769,5.769,0,1,1,9.231,15,5.769,5.769,0,0,1,15,9.231ZM26.25,25.1A1.153,1.153,0,0,1,25.1,26.25H4.9A1.153,1.153,0,0,1,3.75,25.1V12.5H6.121a9.449,9.449,0,0,0-.25,1.214A8.739,8.739,0,0,0,5.77,15a9.23,9.23,0,1,0,18.46,0,8.708,8.708,0,0,0-.1-1.285,9.449,9.449,0,0,0-.25-1.214H26.25V25.1Zm0-17.475A1.154,1.154,0,0,1,25.1,8.776H22.378a1.153,1.153,0,0,1-1.154-1.154V4.9A1.153,1.153,0,0,1,22.378,3.75H25.1A1.154,1.154,0,0,1,26.25,4.9Z" transform="translate(4928.062 1033)"/></svg>