<svg xmlns="http://www.w3.org/2000/svg" viewBox="4395 1182 100 100"><defs><style>.a{fill:#053b0a;stroke:#f9fdff;stroke-width:2px;}.b{fill:#fff;fill-rule:evenodd;}.c{stroke:none;}.d{fill:none;}</style></defs><g transform="translate(3159 1001)"><g class="a" transform="translate(1236 181)"><circle class="c" cx="50" cy="50" r="50"/><circle class="d" cx="50" cy="50" r="49"/></g><path class="b" d="M60,60H0V0H60ZM55,5H5V55H55ZM44.705,40.16c-5.733-1.322-11.068-2.482-8.485-7.362C44.085,17.942,38.305,10,30,10c-8.47,0-14.108,8.247-6.22,22.8,2.66,4.907-2.875,6.067-8.485,7.362-5.12,1.183-5.31,3.725-5.3,8.173L10.01,50H49.993L50,48.385C50.018,43.9,49.845,41.347,44.705,40.16Z" transform="translate(1256 201)"/></g></svg>