<svg xmlns="http://www.w3.org/2000/svg" viewBox="3956 1182 100 100"><defs><style>.a{fill:#053b0a;stroke:#f9fdff;stroke-width:2px;}.b{fill:#fff;}.c{stroke:none;}.d{fill:none;}</style></defs><g transform="translate(3159 1001)"><g class="a" transform="translate(797 181)"><circle class="c" cx="50" cy="50" r="50"/><circle class="d" cx="50" cy="50" r="49"/></g><path class="b" d="M25,37.5A2.5,2.5,0,1,1,27.5,40,2.5,2.5,0,0,1,25,37.5Zm15.5,0L36.25,44,33,40,25,50H50ZM60,25V60H15V25Zm-5,5H20V55H55ZM38.845,6.537,44.455,20h5.417L41.537,0,0,17.307,10,41.465V28.3L6.54,20,38.845,6.538Z" transform="translate(815 201)"/></g></svg>